<?xml version="1.0" encoding="utf-8"?>
<!-- Generator: Adobe Illustrator 22.1.0, SVG Export Plug-In . SVG Version: 6.00 Build 0)  -->
<svg version="1.1" id="Layer_1" xmlns="http://www.w3.org/2000/svg" xmlns:xlink="http://www.w3.org/1999/xlink" x="0px" y="0px"
	 viewBox="0 0 191.2 191.2" style="enable-background:new 0 0 191.2 191.2;" xml:space="preserve">
<style type="text/css">
	.st0{fill:#FFFFFF;}
</style>
<path class="st0" d="M180.7,0H10.5C4.7,0,0,4.8,0,10.6v170.2c0,5.8,4.8,10.5,10.6,10.5h91.6v-73.9H77.3v-29h24.9V67
	c0-24.7,15.1-38.2,37.1-38.2c7.4,0,14.9,0.4,22.3,1.1v25.9h-15.3c-12,0-14.3,5.7-14.3,14.1v18.4h28.7l-3.8,29h-24.9v73.9h48.7
	c5.8,0,10.6-4.7,10.6-10.6V10.5C191.2,4.7,186.5,0,180.7,0z"/>
</svg>
