<?xml version="1.0" encoding="utf-8"?>
<!-- Generator: Adobe Illustrator 22.1.0, SVG Export Plug-In . SVG Version: 6.00 Build 0)  -->
<svg version="1.1" id="Layer_1" xmlns="http://www.w3.org/2000/svg" xmlns:xlink="http://www.w3.org/1999/xlink" x="0px" y="0px"
	 viewBox="0 0 192.7 192.7" style="enable-background:new 0 0 192.7 192.7;" xml:space="preserve">
<style type="text/css">
	.st0{fill:#FFFFFF;}
</style>
<g>
	<path class="st0" d="M96.3,17.4c25.7,0,28.8,0.1,38.9,0.6c9.4,0.4,14.5,2,17.9,3.3c4.5,1.7,7.7,3.8,11.1,7.2
		c3.4,3.4,5.5,6.6,7.2,11.1c1.3,3.4,2.9,8.5,3.3,17.9c0.5,10.2,0.6,13.2,0.6,38.9s-0.1,28.8-0.6,38.9c-0.4,9.4-2,14.5-3.3,17.9
		c-1.7,4.5-3.8,7.7-7.2,11.1c-3.4,3.4-6.6,5.5-11.1,7.2c-3.4,1.3-8.5,2.9-17.9,3.3c-10.2,0.5-13.2,0.6-38.9,0.6s-28.8-0.1-38.9-0.6
		c-9.4-0.4-14.5-2-17.9-3.3c-4.5-1.7-7.7-3.8-11.1-7.2c-3.4-3.4-5.5-6.6-7.2-11.1c-1.3-3.4-2.9-8.5-3.3-17.9
		c-0.5-10.2-0.6-13.2-0.6-38.9s0.1-28.8,0.6-38.9c0.4-9.4,2-14.5,3.3-17.9c1.7-4.5,3.8-7.7,7.2-11.1c3.4-3.4,6.6-5.5,11.1-7.2
		c3.4-1.3,8.5-2.9,17.9-3.3C67.6,17.5,70.6,17.4,96.3,17.4 M96.3,0C70.2,0,66.9,0.1,56.6,0.6C46.4,1,39.4,2.7,33.2,5.1
		c-6.3,2.5-11.7,5.8-17.1,11.1c-5.4,5.4-8.6,10.7-11.1,17.1c-2.4,6.1-4,13.1-4.5,23.4C0.1,66.9,0,70.2,0,96.3
		c0,26.2,0.1,29.4,0.6,39.7c0.5,10.3,2.1,17.3,4.5,23.4c2.5,6.3,5.8,11.7,11.1,17.1c5.4,5.4,10.7,8.6,17.1,11.1
		c6.1,2.4,13.1,4,23.4,4.5c10.3,0.5,13.6,0.6,39.7,0.6s29.4-0.1,39.7-0.6c10.3-0.5,17.3-2.1,23.4-4.5c6.3-2.5,11.7-5.8,17.1-11.1
		c5.4-5.4,8.6-10.7,11.1-17.1c2.4-6.1,4-13.1,4.5-23.4c0.5-10.3,0.6-13.6,0.6-39.7s-0.1-29.4-0.6-39.7c-0.5-10.3-2.1-17.3-4.5-23.4
		c-2.5-6.3-5.8-11.7-11.1-17.1c-5.4-5.4-10.7-8.6-17.1-11.1c-6.1-2.4-13.1-4-23.4-4.5C125.8,0.1,122.5,0,96.3,0L96.3,0z"/>
	<path class="st0" d="M96.3,46.9C69,46.9,46.9,69,46.9,96.3s22.1,49.5,49.5,49.5s49.5-22.1,49.5-49.5S123.7,46.9,96.3,46.9z
		 M96.3,128.4c-17.7,0-32.1-14.4-32.1-32.1s14.4-32.1,32.1-32.1c17.7,0,32.1,14.4,32.1,32.1S114.1,128.4,96.3,128.4z"/>
	<circle class="st0" cx="147.8" cy="44.9" r="11.6"/>
</g>
</svg>
