<?xml version="1.0" encoding="utf-8"?>
<!-- Generator: Adobe Illustrator 22.1.0, SVG Export Plug-In . SVG Version: 6.00 Build 0)  -->
<svg version="1.1" id="Layer_1" xmlns="http://www.w3.org/2000/svg" xmlns:xlink="http://www.w3.org/1999/xlink" x="0px" y="0px"
	 viewBox="0 0 1876 191.4" style="enable-background:new 0 0 1876 191.4;" xml:space="preserve">
<style type="text/css">
	.st0{fill:#FFFFFF;}
</style>
<path class="st0" d="M0,134.4c0.5,33.4,25.3,51.6,56.7,52.4c29.1,0,56.4-19,56.4-53.1c0-21.2-10.4-39.2-29.6-48.1
	c-12.9-6.1-25.5-6.1-26.8-6.1c-11.6,0-22.8-6.8-22.8-20c0-14.7,10.4-22,22.8-22c11.9,0,21.8,6.1,22.3,19c0,0.8,1.3,1.8,2.5,1.8H110
	c1.5,0,2.5-1,2.5-1.8C112.1,25.7,87.8,4.7,56.7,4.7C27.6,4.7,0,25.4,0,59.6c0,21.3,10.6,37.2,29.6,46c13.2,6.1,25.6,6.1,27.1,6.1
	c10.4,0.5,22.8,8.6,22.8,22c0,12.1-10.6,20.2-22.8,20.2c-11.6,0-22.3-6.6-22.8-19.5c0-1-1.3-2-2.5-2H2.5C1,132.4,0,133.4,0,134.4
	 M624.4,9c0-1-1-2-2.5-2h-29.3c-0.8,0-2,0.8-2.3,1.3l-60.7,130l-63.5-130c-0.3-0.5-1.5-1.3-2.3-1.3h-29.6c-1.5,0-2.3,1-2.3,2v173.3
	c0,1,0.8,2,2.3,2h29.1c1.5,0,2.5-1,2.5-2V82.8l48.1,93.1c0.2,0.5,1.5,1.3,2.3,1.3h27.3c0.5,0,1.8-0.8,2-1.3l45-90.8v97.1
	c0,1,1,2,2.5,2h28.8c1.5,0,2.5-1,2.5-2V9z M831.1,39.6c38.4-2,67,14.2,67,56.2c0,54.6-45.5,56.9-67,55.9V39.6z M799.8,7.2
	c-1.5,0-2.5,1-2.5,2v173c0,1,1,2,2.5,2h28.8c44,0,103.7-12.9,103.7-88.5c0-78.7-60.4-88.5-103.7-88.5H799.8z M1196.1,38.6h51.3
	l-25.5,70.8L1196.1,38.6z M1152.6,7.2c-1.8,0-3,1.3-2.3,2.8l69.3,180.1c0.8,1.8,3.8,1.8,4.6,0L1293,10c0.8-1.5-0.5-2.8-2-2.8H1152.6
	z M290.9,152.8h-51.3L265.1,82L290.9,152.8z M334.4,184.2c1.8,0,3-1.3,2.3-2.8L267.4,1.3c-0.8-1.8-3.8-1.8-4.6,0L194,181.4
	c-0.8,1.5,0.5,2.8,2,2.8H334.4z M1659.8,9.2c0-1-1-2-2.5-2h-28.6c-1.5,0-2.5,1-2.5,2v115.3L1544.4,8c-0.3-0.5-1.5-0.8-2-0.8h-29.3
	c-1.3,0-2.3,1-2.3,2v173c0,1,1,2,2.3,2h29.1c1.5,0,2.5-1,2.5-2V66.9l81.5,116.6c0.3,0.5,1.5,0.8,2,0.8h29.1c1.5,0,2.5-1,2.5-2V9.2z
	 M1871.2,39.3c1.5,0,2.5-1,2.5-2V9.2c0-1-1-2-2.5-2h-113.1c-1.5,0-2.5,1-2.5,2v173c0,1,1,2,2.5,2h115.3c1.5,0,2.5-1,2.5-2v-28.8
	c0-1-1-2-2.5-2h-84v-40h69.6c1.3,0,2.3-1,2.3-2V81.3c0-1-1-2-2.3-2h-69.6v-40H1871.2z M1414,7.2h-33.5v177.1h33.5V7.2z M1063.5,7.2
	H1030v177.1h33.5V7.2z"/>
</svg>
