<?xml version="1.0" encoding="utf-8"?>
<!-- Generator: Adobe Illustrator 23.0.3, SVG Export Plug-In . SVG Version: 6.00 Build 0)  -->
<svg version="1.1" xmlns="http://www.w3.org/2000/svg" xmlns:xlink="http://www.w3.org/1999/xlink" x="0px" y="0px"
	 viewBox="0 0 292.12 279.56" style="enable-background:new 0 0 292.12 279.56;" xml:space="preserve">
<style type="text/css">
	.st0{fill:#FFFFFF;}
	.st1{display:none;}
</style>
<g id="Layer_1">
</g>
<g id="Layer_2">
	<g>
		<g>
			<path class="st0" d="M46.18,37c0,5.01-2.08,8.86-6.24,11.55c-4.16,2.68-10.13,4.02-17.9,4.02c-7.22,0-12.7-1.09-16.43-3.27
				C1.87,47.12,0,43.95,0,39.79c0-2.56,0.93-4.65,2.78-6.28c1.85-1.63,4.24-2.44,7.15-2.44c3.36,0,6.03,0.74,8.01,2.22
				c1.98,1.48,2.97,3.47,2.97,5.98c0,1.91-0.65,3.41-1.96,4.51c-1.3,1.1-3.13,1.7-5.49,1.81c-0.3,0.3-0.45,0.63-0.45,0.98
				c0,0.35,0.16,0.63,0.49,0.83c0.33,0.2,0.74,0.3,1.24,0.3c2.51,0,4.6-0.8,6.28-2.41c1.68-1.6,2.52-3.61,2.52-6.02
				c0-1.96-0.4-3.57-1.2-4.85c-0.8-1.28-2.09-2.42-3.87-3.42c-1.78-1-4.2-1.98-7.26-2.93C7.75,27,5.14,25.42,3.38,23.32
				c-1.76-2.11-2.63-4.69-2.63-7.75c0-3.01,0.94-5.68,2.82-8.01c1.88-2.33,4.59-4.17,8.12-5.53C15.23,0.68,19.35,0,24.07,0
				c6.62,0,11.8,1.13,15.53,3.39c3.73,2.26,5.6,5.39,5.6,9.4c0,2.56-0.97,4.65-2.9,6.28c-1.93,1.63-4.43,2.44-7.48,2.44
				c-3.16,0-5.7-0.75-7.63-2.26c-1.93-1.5-2.9-3.48-2.9-5.94c0-1.91,0.65-3.41,1.96-4.51c1.3-1.1,3.13-1.7,5.49-1.81
				c0.3-0.3,0.45-0.63,0.45-0.98c0-0.35-0.16-0.63-0.49-0.83c-0.33-0.2-0.74-0.3-1.24-0.3c-1.61,0-3.07,0.36-4.4,1.09
				c-1.33,0.73-2.4,1.73-3.2,3.01c-0.8,1.28-1.2,2.72-1.2,4.32c0,2.76,0.93,4.98,2.78,6.66c1.85,1.68,5.04,3.15,9.55,4.4
				c4.16,1.15,7.23,2.76,9.21,4.81C45.19,31.24,46.18,33.85,46.18,37z"/>
			<path class="st0" d="M68.29,1.28c0.9,0,1.54,0.2,1.92,0.6c0.38,0.4,0.56,1.08,0.56,2.03v42.8c0,1.35,0.48,2.03,1.43,2.03
				c0.95,0,1.43-0.68,1.43-2.03V3.91c0-0.95,0.19-1.63,0.56-2.03c0.38-0.4,1.02-0.6,1.92-0.6h16.62c0.9,0,1.55,0.19,1.96,0.56
				c0.4,0.38,0.6,0.99,0.6,1.84v27c0,7.22-1.94,12.67-5.83,16.36c-3.89,3.69-9.64,5.53-17.26,5.53c-7.57,0-13.31-1.84-17.22-5.53
				c-3.91-3.69-5.87-9.14-5.87-16.36V9.85c0-1.25-0.1-2.17-0.3-2.75c-0.2-0.58-0.55-1.1-1.05-1.58c-0.5-0.48-1.35-1.11-2.56-1.92
				c-0.25-0.15-0.38-0.38-0.38-0.68v-0.9c0-0.5,0.3-0.75,0.9-0.75H68.29z"/>
			<path class="st0" d="M139.82,36.1c0.25,0.1,0.5,0.15,0.75,0.15c0.3,0,0.58-0.11,0.83-0.34c0.25-0.23,0.38-0.51,0.38-0.86
				c0-0.65-0.28-1.4-0.83-2.26l-17.3-28.58c-0.25-0.4-0.41-0.69-0.49-0.86c-0.08-0.18-0.11-0.39-0.11-0.64V2.26
				c0-0.4,0.07-0.66,0.23-0.79c0.15-0.12,0.4-0.19,0.75-0.19h19.25c0.9,0,1.54,0.2,1.92,0.6c0.38,0.4,0.56,1.08,0.56,2.03v44.75
				c0,0.95-0.19,1.63-0.56,2.03c-0.38,0.4-1.01,0.6-1.92,0.6h-9.63c-2.31,0-4.11-0.4-5.42-1.2c-1.3-0.8-2.61-2.28-3.91-4.44
				l-17.68-29.18c-0.25-0.1-0.48-0.15-0.68-0.15c-0.3,0-0.59,0.11-0.86,0.34c-0.28,0.22-0.41,0.51-0.41,0.86
				c0,0.55,0.27,1.3,0.83,2.26l17.3,28.58c0.25,0.4,0.41,0.69,0.49,0.86c0.08,0.18,0.11,0.39,0.11,0.64v0.45
				c0,0.35-0.06,0.6-0.19,0.75c-0.13,0.15-0.39,0.23-0.79,0.23h-19.25c-0.9,0-1.54-0.2-1.92-0.6c-0.38-0.4-0.56-1.08-0.56-2.03V9.85
				c0-1.25-0.1-2.17-0.3-2.75c-0.2-0.58-0.55-1.1-1.05-1.58C98.85,5.05,98,4.41,96.8,3.61c-0.25-0.15-0.38-0.38-0.38-0.68v-0.9
				c0-0.5,0.3-0.75,0.9-0.75h15.49c2.31,0,4.11,0.4,5.42,1.2c1.3,0.8,2.61,2.28,3.91,4.44L139.82,36.1z"/>
			<path class="st0" d="M175.09,1.28c7.42,0,13.2,2.19,17.34,6.58c4.14,4.39,6.2,10.49,6.2,18.31c0,4.91-0.95,9.26-2.86,13.05
				c-1.91,3.79-4.65,6.74-8.24,8.87c-3.59,2.13-7.76,3.2-12.52,3.2h-20.61c-0.9,0-1.54-0.2-1.92-0.6c-0.38-0.4-0.56-1.08-0.56-2.03
				V9.78c0-1.6-0.2-2.75-0.6-3.42c-0.4-0.68-1.5-1.59-3.31-2.75c-0.25-0.15-0.38-0.38-0.38-0.68v-0.9c0-0.5,0.3-0.75,0.9-0.75
				H175.09z M172.08,47.08c0.3,0.4,0.78,0.6,1.43,0.6c0.45,0,0.8-0.18,1.05-0.53c0.25-0.35,0.38-0.8,0.38-1.35V6.77
				c0-0.55-0.13-1-0.38-1.35c-0.25-0.35-0.6-0.53-1.05-0.53c-0.65,0-1.13,0.2-1.43,0.6V47.08z"/>
			<path class="st0" d="M220.52,38.58h-2.78l2.18,8.42c0.3,1.15,0.45,1.96,0.45,2.41c0,1.25-0.78,1.88-2.33,1.88h-19.63
				c-1,0-1.77-0.24-2.29-0.71c-0.53-0.48-0.79-1.14-0.79-1.99c0-1.15,1.15-4.66,3.46-10.53c2.31-5.87,6.22-15.22,11.73-28.05
				c0.3-0.7,0.45-1.33,0.45-1.88c0-0.85-0.21-1.58-0.64-2.18c-0.43-0.6-1.22-1.28-2.37-2.03c-0.5-0.3-0.75-0.63-0.75-0.98v-0.9
				c0-0.5,0.3-0.75,0.9-0.75h17.45c1.65,0,3,0.33,4.02,0.98c1.03,0.65,1.82,1.7,2.37,3.16l14.52,38.21
				c0.95,2.46,1.43,4.21,1.43,5.26c0,1.61-0.83,2.41-2.48,2.41h-18.88c-1.05,0-1.82-0.23-2.29-0.68c-0.48-0.45-0.89-1.35-1.24-2.71
				L220.52,38.58z M216.84,35.05h2.78l-5.26-20.23c-0.25-0.25-0.58-0.38-0.98-0.38c-0.4,0-0.73,0.11-0.98,0.34
				c-0.25,0.22-0.38,0.51-0.38,0.86c0,0.2,0.02,0.43,0.08,0.68c0.05,0.25,0.12,0.55,0.23,0.9L216.84,35.05z"/>
			<path class="st0" d="M238.95,7.52c-0.3-0.8-0.72-1.47-1.24-1.99c-0.53-0.53-1.42-1.17-2.67-1.92c-0.25-0.15-0.38-0.38-0.38-0.68
				v-0.9c0-0.5,0.3-0.75,0.9-0.75h16.92c2.36,0,4.31,0.34,5.87,1.02c1.55,0.68,2.83,1.73,3.84,3.16c1,1.43,1.81,3.3,2.41,5.6
				l6.47,24.44c0.25,0.25,0.63,0.38,1.13,0.38c0.3,0,0.58-0.11,0.83-0.34c0.25-0.23,0.38-0.51,0.38-0.87c0-0.4-0.1-0.93-0.3-1.58
				l-5.94-23.16c-0.25-0.9-0.6-1.88-1.05-2.93c-0.45-1.05-0.9-1.88-1.35-2.48c-0.45-0.6-0.73-1-0.83-1.2
				c-0.1-0.2-0.15-0.45-0.15-0.75V2.03c0-0.5,0.33-0.75,0.98-0.75h24.29c1,0,1.77,0.24,2.29,0.71c0.53,0.48,0.79,1.14,0.79,1.99
				c0,1.25-0.58,3.76-1.73,7.52c-1.15,3.76-3.71,11.33-7.67,22.71c-0.65,1.96-1.49,3.29-2.52,3.99c-1.03,0.7-2.44,1.05-4.25,1.05
				v9.4c0,0.95-0.19,1.63-0.56,2.03c-0.38,0.4-1.02,0.6-1.92,0.6h-15.19c-0.9,0-1.54-0.2-1.92-0.6c-0.38-0.4-0.56-1.08-0.56-2.03
				v-9.4c-1.3,0-2.34-0.12-3.12-0.38c-0.78-0.25-1.4-0.64-1.88-1.17c-0.48-0.53-0.94-1.39-1.39-2.59L238.95,7.52z"/>
		</g>
		<g>
			<path class="st0" d="M11.27,76.46c1.62,1.62,4.13,2.98,7.21,2.98c2,0,3.22-0.85,3.22-1.93c0-1.29-1.46-1.79-3.86-2.3
				c-3.72-0.74-8.94-1.69-8.94-7.04c0-3.79,3.22-7.07,9-7.07c3.62,0,6.77,1.08,9.17,3.15l-3.18,4.16c-1.9-1.56-4.37-2.34-6.36-2.34
				c-1.93,0-2.67,0.78-2.67,1.76c0,1.18,1.39,1.59,3.89,2.06c3.72,0.78,8.87,1.86,8.87,6.97c0,4.54-3.35,7.55-9.41,7.55
				c-4.57,0-7.75-1.42-10.02-3.59L11.27,76.46z"/>
			<path class="st0" d="M46.57,61.43h16.55v4.91H52.39v3.76h10.49v4.94H52.39v4.06h10.73v4.91H46.57V61.43z"/>
			<path class="st0" d="M84.21,76.46c1.62,1.62,4.13,2.98,7.21,2.98c2,0,3.22-0.85,3.22-1.93c0-1.29-1.46-1.79-3.86-2.3
				c-3.72-0.74-8.94-1.69-8.94-7.04c0-3.79,3.22-7.07,9-7.07c3.62,0,6.77,1.08,9.17,3.15l-3.18,4.16c-1.9-1.56-4.37-2.34-6.36-2.34
				c-1.93,0-2.67,0.78-2.67,1.76c0,1.18,1.39,1.59,3.89,2.06c3.72,0.78,8.87,1.86,8.87,6.97c0,4.54-3.35,7.55-9.41,7.55
				c-4.57,0-7.75-1.42-10.02-3.59L84.21,76.46z"/>
			<path class="st0" d="M120.96,76.46c1.62,1.62,4.13,2.98,7.21,2.98c2,0,3.22-0.85,3.22-1.93c0-1.29-1.46-1.79-3.86-2.3
				c-3.72-0.74-8.94-1.69-8.94-7.04c0-3.79,3.22-7.07,9-7.07c3.62,0,6.77,1.08,9.17,3.15l-3.18,4.16c-1.9-1.56-4.37-2.34-6.36-2.34
				c-1.93,0-2.67,0.78-2.67,1.76c0,1.18,1.39,1.59,3.89,2.06c3.72,0.78,8.87,1.86,8.87,6.97c0,4.54-3.35,7.55-9.41,7.55
				c-4.57,0-7.75-1.42-10.02-3.59L120.96,76.46z"/>
			<path class="st0" d="M156.27,61.43h5.82v22.58h-5.82V61.43z"/>
			<path class="st0" d="M193.33,61.06c6.91,0,12.05,4.81,12.05,11.68c0,6.87-5.14,11.68-12.05,11.68c-6.91,0-12.08-4.81-12.08-11.68
				C181.25,65.87,186.43,61.06,193.33,61.06z M193.33,66.21c-3.76,0-6.16,2.84-6.16,6.53c0,3.66,2.4,6.53,6.16,6.53
				c3.72,0,6.13-2.88,6.13-6.53C199.46,69.05,197.05,66.21,193.33,66.21z"/>
			<path class="st0" d="M230.39,70.37v13.64h-5.82V61.43h5.99l9.14,13v-13h5.86v22.58h-5.62L230.39,70.37z"/>
			<path class="st0" d="M267.32,76.46c1.62,1.62,4.13,2.98,7.21,2.98c2,0,3.22-0.85,3.22-1.93c0-1.29-1.46-1.79-3.86-2.3
				c-3.72-0.74-8.94-1.69-8.94-7.04c0-3.79,3.22-7.07,9-7.07c3.62,0,6.77,1.08,9.17,3.15l-3.18,4.16c-1.9-1.56-4.37-2.34-6.36-2.34
				c-1.93,0-2.67,0.78-2.67,1.76c0,1.18,1.39,1.59,3.89,2.06c3.72,0.78,8.87,1.86,8.87,6.97c0,4.54-3.35,7.55-9.41,7.55
				c-4.57,0-7.75-1.42-10.02-3.59L267.32,76.46z"/>
		</g>
	</g>
</g>
<g id="Layer_3">
	<path class="st0" d="M35.55,196.07c13.17,0,31.57,3,31.57,26.95c0,23.02-18.17,26.95-31.57,26.95h-8.78
		c-0.46,0-0.77-0.31-0.77-0.62v-52.67c0-0.31,0.31-0.62,0.77-0.62H35.55 M36.32,240.04c6.55,0.31,20.41-0.38,20.41-17.02
		c0-12.78-8.7-17.71-20.41-17.09V240.04z"/>
	<path class="st0" d="M121.87,196.07c0.46,0,0.85,0.38,0.62,0.85l-20.94,54.83c-0.23,0.54-1.16,0.54-1.39,0l-21.1-54.83
		c-0.23-0.46,0.15-0.85,0.69-0.85H121.87 M100.85,227.18l7.78-21.56H93L100.85,227.18z"/>
	<path class="st0" d="M138.02,196.69c0-0.31,0.31-0.62,0.77-0.62h8.7c0.46,0,0.77,0.31,0.77,0.62v52.67c0,0.31-0.31,0.62-0.77,0.62
		h-8.7c-0.46,0-0.77-0.31-0.77-0.62V196.69"/>
	<path class="st0" d="M210.78,249.36c0,0.31-0.31,0.62-0.77,0.62h-8.78c-0.15,0-0.54-0.08-0.62-0.23l-24.64-35.88v35.5
		c0,0.31-0.31,0.62-0.69,0.62h-8.78c-0.46,0-0.69-0.31-0.69-0.62v-52.75c0-0.31,0.23-0.62,0.69-0.62h8.85
		c0.15,0,0.46,0.08,0.54,0.23l24.72,36.19v-35.81c0-0.31,0.31-0.62,0.77-0.62h8.62c0.46,0,0.77,0.31,0.77,0.62V249.36"/>
	<path class="st0" d="M239.18,205.85v12.48h21.02c0.46,0,0.69,0.31,0.69,0.62v8.39c0,0.31-0.23,0.62-0.69,0.62h-21.02v12.32h25.41
		c0.46,0,0.77,0.31,0.77,0.62v8.47c0,0.31-0.31,0.62-0.77,0.62h-34.88c-0.38,0-0.69-0.31-0.69-0.62v-52.67
		c0-0.31,0.31-0.62,0.69-0.62h34.88c0.46,0,0.77,0.31,0.77,0.62v8.55c0,0.31-0.31,0.62-0.77,0.62H239.18"/>
</g>
<g id="Layer_5">
	<path class="st0" d="M264.41,258.61c0.63,0,1.26,0.63,1.26,1.58v17.8c0,0.95-0.63,1.57-1.26,1.57H27.11
		c-0.63,0-1.26-0.63-1.26-1.57v-17.8c0-0.95,0.63-1.58,1.26-1.58H264.41 M98.57,271.69c0.03,1.98,1.5,3.07,3.37,3.11
		c1.73,0,3.35-1.13,3.35-3.16c0-1.26-0.62-2.33-1.76-2.86c-0.77-0.36-1.52-0.36-1.59-0.36c-0.69,0-1.35-0.41-1.35-1.19
		c0-0.87,0.62-1.31,1.35-1.31c0.71,0,1.29,0.36,1.32,1.13c0,0.04,0.08,0.1,0.15,0.1h1.7c0.09,0,0.15-0.06,0.15-0.1
		c-0.03-1.83-1.47-3.08-3.32-3.08c-1.73,0-3.37,1.23-3.37,3.26c0,1.26,0.63,2.21,1.76,2.74c0.78,0.36,1.52,0.36,1.61,0.36
		c0.62,0.03,1.35,0.51,1.35,1.31c0,0.72-0.63,1.2-1.35,1.2c-0.69,0-1.32-0.39-1.35-1.16c0-0.06-0.08-0.12-0.15-0.12h-1.71
		C98.63,271.57,98.57,271.63,98.57,271.69 M124.36,269.38c0-2.69-1.74-5.4-5.19-5.4c-3.5,0-5.22,2.71-5.22,5.4
		c0,2.69,1.71,5.41,5.22,5.41C122.61,274.79,124.36,272.07,124.36,269.38 M119.17,272.89c-2.12,0-3.17-1.74-3.17-3.49
		c0-1.76,1.05-3.52,3.17-3.52c2.09,0,3.16,1.76,3.16,3.52C122.33,271.15,121.26,272.89,119.17,272.89z M133.55,271.27
		c0,2.18,1.79,3.53,3.97,3.53c2.26,0,3.97-1.29,3.97-3.53v-6.93c0-0.06-0.06-0.12-0.14-0.12h-1.71c-0.09,0-0.15,0.06-0.15,0.12v6.93
		c0,1.07-0.98,1.59-1.97,1.59c-0.98,0-1.85-0.56-1.97-1.61v-6.91c0-0.06-0.06-0.12-0.15-0.12h-1.7c-0.09,0-0.15,0.06-0.15,0.12
		V271.27 M159.83,274.53v-10.3c0-0.06-0.06-0.12-0.15-0.12h-1.68c-0.09,0-0.15,0.06-0.15,0.12v6.99l-4.83-7.07
		c-0.01-0.03-0.08-0.05-0.1-0.05h-1.73c-0.09,0-0.14,0.06-0.14,0.12v10.3c0,0.06,0.05,0.12,0.14,0.12h1.71
		c0.07,0,0.14-0.06,0.14-0.12v-6.93l4.81,7.01c0.02,0.03,0.09,0.04,0.12,0.04h1.71C159.77,274.65,159.83,274.59,159.83,274.53
		 M171.25,264.13h-1.7c-0.09,0-0.15,0.06-0.15,0.12v10.28c0,0.06,0.06,0.12,0.15,0.12h1.7c2.6,0,6.1-0.83,6.1-5.29
		C177.36,264.73,173.79,264.13,171.25,264.13 M171.41,265.99c2.27-0.12,3.95,0.59,3.95,3.37c0,3.23-2.69,3.47-3.95,3.41V265.99z
		 M186.2,271.71c0.03,1.98,1.49,3.05,3.34,3.1c1.71,0,3.32-1.1,3.32-3.13c0-1.23-0.62-2.31-1.76-2.84
		c-0.75-0.35-1.49-0.35-1.56-0.35c-0.69,0-1.34-0.5-1.34-1.26c0-0.89,0.6-1.31,1.34-1.31c0.69,0,1.28,0.36,1.31,1.11
		c0,0.06,0.08,0.12,0.15,0.12h1.68c0.09,0,0.15-0.06,0.15-0.12c-0.03-1.8-1.46-3.04-3.29-3.04c-1.73,0-3.34,1.22-3.34,3.23
		c0,1.25,0.63,2.27,1.74,2.8c0.77,0.35,1.5,0.35,1.59,0.35c0.6,0.03,1.34,0.53,1.34,1.31c0,0.74-0.63,1.19-1.34,1.19
		c-0.69,0-1.31-0.38-1.34-1.16c0-0.06-0.07-0.11-0.15-0.11h-1.7C186.26,271.6,186.2,271.65,186.2,271.71"/>
</g>
<g id="Layer_4">
	<g>
		<path class="st0" d="M146.35,148.39l-7.66,8.93h-16.53l16.07-17.45l-14.69-15.96h16.07l6.86,7.83l6.85-7.83h15.96l-14.63,16.07
			l15.32,17.34H153.9L146.35,148.39z"/>
	</g>
</g>
<g id="Layer_6" class="st1">
	<text transform="matrix(1 0 0 1 114.4924 393.7256)" style="display:inline;"><tspan x="0" y="0" class="st0" style="font-family:'AvantGardeBQ-DemiBold'; font-size:72px;">IN</tspan><tspan x="-17.96" y="86.4" class="st0" style="font-family:'AvantGardeBQ-DemiBold'; font-size:72px;">THE</tspan><tspan x="-24.7" y="172.8" class="st0" style="font-family:'AvantGardeBQ-DemiBold'; font-size:72px;">SKY</tspan></text>
</g>
<g id="Layer_7" class="st1">
	<rect x="-212.69" y="338.94" style="display:inline;fill:none;" width="728.78" height="113.05"/>
	
		<text transform="matrix(1 0 0 1 -122.833 389.7733)" style="display:inline;fill:#FFFFFF; font-family:'AvantGardeBQ-DemiBold'; font-size:72px;">DVINE IN THE SKY</text>
</g>
</svg>
