<?xml version="1.0" encoding="utf-8"?>
<!-- Generator: Adobe Illustrator 22.1.0, SVG Export Plug-In . SVG Version: 6.00 Build 0)  -->
<svg version="1.1" id="Layer_1" xmlns="http://www.w3.org/2000/svg" xmlns:xlink="http://www.w3.org/1999/xlink" x="0px" y="0px"
	 viewBox="0 0 192.7 192.7" style="enable-background:new 0 0 192.7 192.7;" xml:space="preserve">
<style type="text/css">
	.st0{fill:#FFFFFF;}
</style>
<path class="st0" d="M168.9,0.5H24.1C10.8,0.5,0,11.4,0,24.7v144.8c0,13.3,10.8,24.1,24.1,24.1h144.8c13.3,0,24.1-10.8,24.1-24.1
	V24.7C193,11.4,182.2,0.5,168.9,0.5z M144.5,72.5c0,1.1,0,2.1,0,3.2c0,32.7-24.9,70.4-70.4,70.4c-13.9,0-27-4.1-37.9-11
	c1.9,0.2,3.9,0.3,5.9,0.3c11.6,0,22.2-4,30.7-10.6c-10.8-0.2-20-7.3-23.1-17.2c1.5,0.3,3,0.4,4.6,0.4c2.3,0,4.4-0.3,6.5-0.9
	c-11.3-2.3-19.8-12.3-19.8-24.3c0-0.1,0-0.2,0-0.3c3.3,1.8,7.1,2.9,11.2,3.1c-6.6-4.4-11-12-11-20.6c0-4.5,1.2-8.8,3.3-12.4
	c12.2,15,30.4,24.8,51,25.9c-0.4-1.8-0.6-3.7-0.6-5.6C95,59.1,106.1,48,119.7,48c7.1,0,13.5,3,18,7.8c5.6-1.1,11-3.1,15.7-6
	c-1.9,5.8-5.8,10.7-10.9,13.7c5-0.6,9.8-1.9,14.2-3.9C153.5,64.6,149.3,69,144.5,72.5z"/>
</svg>
